#!OML:ASF E:\acrobat2\Project_11_07_03\Capture day 1\Session 1\Acrobat.ASF
:FULLY-SPECIFIED
:DEGREES
520
root 8.16 18.325 7.11065 -172.989 -12.5585 -182.529
lowerback 4.35583 6.68289 3.21336
upperback 3.63316 8.64748 -6.83605
thorax 2.94099 4.38329 -9.05599
lowerneck 4.20672 22.3283 4.26344
upperneck 3.44847 30.0407 -8.25115
head 2.49813 15.0016 -2.52605
rclavicle -1.00187e-013 6.99722e-014
rhumerus -46.0237 -4.39232 -59.6781
rradius 97.8899
rwrist -16.3127
rhand 9.9065 -35.6367
rfingers 7.12502
rthumb 35.0377 -62.184
lclavicle -1.00187e-013 6.99722e-014
lhumerus -45.3207 -40.4268 89.9228
lradius 61.5231
lwrist 20.3036
lhand -22.2852 -15.8811
lfingers 7.12502
lthumb 4.13335 14.0586
rfemur -37.8478 -11.702 21.2122
rtibia 48.3761
rfoot 17.0362 -0.796052
rtoes 1.22632
lfemur -8.19011 -2.58629 -18.957
ltibia 38.6478
lfoot 23.632 -4.53721
ltoes 27.7149
521
root 8.16163 18.3203 7.27299 -173.031 -12.3718 -182.414
lowerback 4.40862 6.66259 3.57154
upperback 3.60279 8.63644 -6.87387
thorax 2.94209 4.39227 -9.30773
lowerneck 3.94989 22.2858 3.83858
upperneck 3.64533 29.9431 -7.49475
head 2.39482 14.9433 -2.25468
rclavicle -1.145e-013 9.14409e-014
rhumerus -45.9735 -4.93906 -59.5922
rradius 98.5268
rwrist -16.2784
rhand 9.25481 -35.3347
rfingers 7.12502
rthumb 34.4192 -62.0245
lclavicle -1.145e-013 9.14409e-014
lhumerus -45.9566 -40.9247 90.1127
lradius 61.7617
lwrist 20.4181
lhand -21.6834 -15.3146
lfingers 7.12502
lthumb 4.71446 14.613
rfemur -37.924 -11.1324 21.2387
rtibia 47.7661
rfoot 16.6001 -0.733431
rtoes -0.210323
lfemur -8.28023 -2.53822 -18.9632
ltibia 39.6845
lfoot 25.6067 -3.42575
ltoes 27.9639
522
root 8.16148 18.3109 7.43642 -173.097 -12.2278 -182.36
lowerback 4.57054 6.62558 3.84334
upperback 3.56242 8.59747 -6.90347
thorax 2.85079 4.37977 -9.51753
lowerneck 4.59286 22.2429 4.84274
upperneck 3.34523 29.9509 -8.21453
head 2.47852 14.9763 -2.62825
rclavicle 5.56597e-015 2.38542e-014
rhumerus -46.0701 -5.48154 -59.4997
rradius 99.2371
rwrist -16.3065
rhand 8.88249 -34.9925
rfingers 7.12502
rthumb 34.0657 -61.7617
lclavicle 5.56597e-015 2.38542e-014
lhumerus -46.6997 -41.4129 90.3748
lradius 62.0808
lwrist 20.4897
lhand -21.0401 -14.6559
lfingers 7.12502
lthumb 5.33562 15.2569
rfemur -37.9335 -10.6566 21.1685
rtibia 47.1235
rfoot 16.2355 -0.483387
rtoes -0.6593
lfemur -8.31558 -2.64478 -19.0638
ltibia 40.6586
lfoot 27.5303 -1.61779
ltoes 29.6685
523
root 8.15685 18.2995 7.60178 -173.2 -12.1294 -182.379
lowerback 4.63773 6.56148 3.89488
upperback 3.65674 8.51596 -6.79758
thorax 2.88678 4.34187 -9.43635
lowerneck 4.59649 22.2274 4.89242
upperneck 3.27076 29.9357 -8.25623
head 2.46657 14.9722 -2.65021
rclavicle -3.29983e-014 1.51076e-014
rhumerus -46.065 -5.84024 -59.2473
rradius 100.004
rwrist -16.3729
rhand 8.45377 -34.6939
rfingers 7.12502
rthumb 33.6584 -61.5529
lclavicle -3.29983e-014 1.51076e-014
lhumerus -47.2181 -41.7495 90.7389
lradius 62.3167
lwrist 20.5096
lhand -20.4262 -14.3082
lfingers 7.12502
lthumb 5.92836 15.5889
rfemur -37.7898 -10.2617 20.9793
rtibia 46.3791
rfoot 15.6634 -0.269152
rtoes -1.01395
lfemur -8.29319 -2.9054 -19.288
ltibia 41.5769
lfoot 29.2345 0.644154
ltoes 31.7868
524
root 8.15542 18.2913 7.77208 -173.232 -11.8875 -182.389
lowerback 4.65806 6.55791 3.82925
upperback 3.73 8.51365 -6.64705
thorax 2.91568 4.33935 -9.23364
lowerneck 4.60142 22.1816 4.82222
upperneck 3.21269 29.8707 -8.2112
head 2.4217 14.9421 -2.64173
rclavicle 3.18055e-014 -4.13472e-014
rhumerus -45.9185 -6.16735 -58.9418
rradius 100.656
rwrist -16.4555
rhand 7.60822 -34.5167
rfingers 7.12502
rthumb 32.8544 -61.5475
lclavicle 3.18055e-014 -4.13472e-014
lhumerus -47.7434 -42.0906 91.2281
lradius 62.587
lwrist 20.5587
lhand -19.988 -14.2165
lfingers 7.12502
lthumb 6.35142 15.6683
rfemur -37.6657 -9.55342 20.7521
rtibia 45.4704
rfoot 15.0225 -0.40494
rtoes -1.274
lfemur -8.43196 -3.01776 -19.5297
ltibia 42.4359
lfoot 30.9302 2.21355
ltoes 32.0394
